<?xml version="1.0" encoding="UTF-8"?>
<svg xmlns="http://www.w3.org/2000/svg" xmlns:xlink="http://www.w3.org/1999/xlink" width="43px" height="59px" viewBox="0 0 43 59" version="1.1">
<g id="surface1">
<path style=" stroke:none;fill-rule:nonzero;fill:rgb(0%,0%,0%);fill-opacity:1;" d="M 39.675781 0.113281 C 39.328125 0.445312 38.875 1.21875 38.195312 2.644531 C 37.699219 3.6875 37.171875 4.863281 37.128906 5.042969 C 37.105469 5.140625 37.121094 5.144531 38.25 5.25 C 38.878906 5.304688 39.402344 5.359375 39.40625 5.371094 C 39.429688 5.394531 39.132812 5.429688 38.558594 5.484375 C 37.792969 5.554688 37.644531 5.617188 37.234375 6.035156 C 36.59375 6.699219 36.046875 7.664062 34.871094 10.222656 C 34.191406 11.707031 33.535156 13.03125 33.390625 13.214844 C 33.3125 13.3125 33.5625 13.375 34.101562 13.402344 C 34.515625 13.421875 34.671875 13.410156 35.003906 13.320312 C 36.605469 12.914062 37.84375 11.605469 38.617188 9.496094 C 38.792969 9.015625 39.144531 7.855469 39.148438 7.742188 C 39.148438 7.707031 39.171875 7.726562 39.199219 7.789062 C 39.277344 7.972656 39.257812 9.1875 39.175781 9.632812 C 39.019531 10.453125 38.75 11.121094 38.308594 11.804688 C 37.933594 12.375 37.363281 12.960938 36.800781 13.339844 C 35.96875 13.90625 35.3125 14.144531 34.144531 14.316406 C 33.210938 14.453125 33.097656 14.484375 32.707031 14.695312 C 32.113281 15.007812 31.609375 15.628906 31.097656 16.679688 C 30.964844 16.945312 30.875 17.167969 30.886719 17.1875 C 30.90625 17.203125 31.644531 17.214844 32.53125 17.214844 C 33.851562 17.214844 34.246094 17.203125 34.683594 17.132812 C 35.296875 17.035156 36.082031 16.839844 36.535156 16.667969 C 38.0625 16.074219 39.277344 14.925781 39.738281 13.625 L 39.820312 13.390625 L 39.824219 13.554688 C 39.824219 13.796875 39.628906 14.539062 39.476562 14.894531 C 39.398438 15.058594 39.261719 15.308594 39.171875 15.445312 C 39.082031 15.578125 39.007812 15.71875 39.007812 15.75 C 39.007812 15.78125 39.089844 15.871094 39.195312 15.949219 C 39.808594 16.398438 40.703125 16.382812 41.238281 15.902344 C 41.914062 15.296875 42.019531 14.246094 41.589844 12.351562 C 41.519531 12.035156 41.316406 11.257812 41.144531 10.621094 C 40.539062 8.410156 40.476562 7.996094 40.304688 4.953125 C 40.265625 4.320312 40.214844 3.261719 40.191406 2.605469 C 40.113281 0.71875 40.101562 0.503906 40.019531 0.246094 C 39.933594 -0.03125 39.863281 -0.0585938 39.675781 0.113281 Z M 39.675781 0.113281 "/>
<path style=" stroke:none;fill-rule:nonzero;fill:rgb(0%,0%,0%);fill-opacity:1;" d="M 38.574219 0.109375 C 38.144531 0.25 37.585938 0.644531 35.863281 2.039062 C 34.316406 3.285156 33.707031 3.722656 33.058594 4.050781 C 32.125 4.527344 31.277344 4.792969 29.371094 5.207031 C 27.085938 5.710938 25.652344 6.128906 23.835938 6.832031 C 22.160156 7.476562 20.238281 8.390625 18.785156 9.234375 C 17.71875 9.851562 17.078125 10.445312 16.742188 11.140625 C 16.558594 11.507812 16.546875 11.566406 16.53125 11.988281 C 16.503906 12.675781 16.65625 13.140625 17.035156 13.546875 C 17.203125 13.722656 17.601562 13.964844 17.722656 13.964844 C 17.75 13.964844 17.816406 13.878906 17.875 13.769531 C 18.078125 13.402344 18.617188 12.605469 18.980469 12.132812 C 19.335938 11.667969 19.46875 11.527344 19.289062 11.808594 C 18.949219 12.328125 18.613281 13.230469 18.46875 14.011719 C 18.261719 15.09375 18.25 16.125 18.429688 18.414062 C 18.734375 22.5 19.164062 24.898438 19.992188 27.195312 C 20.175781 27.699219 20.730469 29.011719 20.789062 29.070312 C 20.832031 29.113281 21.203125 28.839844 21.414062 28.613281 C 21.660156 28.355469 21.953125 27.785156 22.074219 27.332031 C 22.183594 26.917969 22.183594 25.652344 22.070312 24.796875 C 22.023438 24.445312 21.980469 23.738281 21.964844 23.15625 C 21.929688 21.582031 22.054688 20.585938 22.535156 18.75 C 22.878906 17.429688 22.960938 16.847656 22.964844 15.71875 C 22.96875 14.988281 22.949219 14.664062 22.882812 14.289062 C 22.78125 13.699219 22.589844 12.992188 22.414062 12.554688 L 22.28125 12.230469 L 22.585938 12.53125 C 22.855469 12.804688 23.390625 13.183594 23.511719 13.183594 C 23.535156 13.183594 23.605469 12.929688 23.65625 12.617188 C 23.867188 11.441406 24.363281 10.277344 25.066406 9.332031 C 25.308594 9.011719 25.96875 8.304688 26.226562 8.097656 L 26.410156 7.949219 L 26.199219 8.226562 C 25.332031 9.382812 24.710938 10.933594 24.125 13.390625 C 23.175781 17.359375 22.898438 19.113281 22.898438 21.15625 C 22.902344 22.453125 23.035156 23.5 23.320312 24.496094 L 23.410156 24.8125 L 23.507812 24.703125 C 23.566406 24.640625 23.949219 24.21875 24.355469 23.761719 C 24.761719 23.304688 25.332031 22.679688 25.621094 22.375 C 26.664062 21.261719 26.769531 21.058594 27.066406 19.65625 C 27.265625 18.675781 27.410156 17.570312 27.5625 15.785156 C 27.722656 13.925781 27.785156 13.453125 27.949219 12.882812 C 28.125 12.265625 28.328125 11.761719 28.9375 10.464844 C 29.246094 9.816406 29.539062 9.167969 29.597656 9.023438 C 29.703125 8.765625 29.710938 8.757812 29.980469 8.664062 C 30.128906 8.613281 30.269531 8.574219 30.285156 8.574219 C 30.308594 8.574219 30.222656 8.777344 30.101562 9.019531 C 29.355469 10.542969 28.839844 12.449219 28.625 14.496094 C 28.550781 15.238281 28.535156 16.792969 28.601562 17.398438 C 28.667969 17.980469 28.742188 18.351562 28.792969 18.316406 C 28.886719 18.257812 30.195312 16.429688 30.832031 15.460938 C 33.800781 10.960938 35.539062 6.921875 35.886719 3.691406 C 35.9375 3.25 35.957031 3.179688 36.023438 3.179688 C 36.105469 3.179688 36.121094 3.386719 36.160156 4.539062 C 36.191406 5.636719 36.242188 6.039062 36.332031 6.039062 C 36.359375 6.039062 38.722656 0.8125 38.914062 0.332031 C 38.972656 0.183594 38.972656 0.164062 38.894531 0.109375 C 38.796875 0.0351562 38.816406 0.0351562 38.574219 0.109375 Z M 38.574219 0.109375 "/>
<path style=" stroke:none;fill-rule:nonzero;fill:rgb(0%,0%,0%);fill-opacity:1;" d="M 14.769531 11.429688 C 14.488281 11.53125 13.621094 12.058594 12.820312 12.617188 C 6.679688 16.867188 2.367188 23.742188 1.140625 31.226562 C 0.894531 32.734375 0.847656 33.371094 0.734375 36.484375 C 0.675781 38.003906 0.625 38.445312 0.351562 39.851562 C 0.0664062 41.320312 -0.00390625 41.941406 0.0234375 42.589844 C 0.0976562 44.21875 0.882812 45.222656 2.652344 45.984375 C 3.699219 46.433594 7.445312 47.742188 7.996094 47.851562 C 8.414062 47.933594 9.246094 47.933594 9.523438 47.851562 C 9.804688 47.765625 10.117188 47.484375 10.214844 47.222656 C 10.351562 46.859375 10.289062 46.316406 9.996094 45.308594 C 9.855469 44.839844 9.617188 43.949219 9.464844 43.328125 C 8.382812 38.972656 8.324219 38.789062 7.859375 38.074219 C 7.441406 37.433594 6.902344 37.023438 5.472656 36.238281 C 4.355469 35.625 4.15625 35.492188 3.628906 34.960938 C 3.335938 34.667969 3.109375 34.339844 2.972656 34 C 2.898438 33.824219 2.917969 33.832031 3.324219 34.230469 C 3.917969 34.800781 4.488281 35.203125 5.253906 35.597656 C 5.886719 35.921875 5.917969 35.929688 6.234375 35.929688 C 6.519531 35.929688 6.578125 35.917969 6.679688 35.820312 C 6.824219 35.675781 6.898438 35.441406 6.863281 35.246094 C 6.84375 35.167969 6.683594 34.71875 6.5 34.246094 C 5.714844 32.21875 5.308594 30.304688 5.238281 28.300781 L 5.214844 27.679688 L 5.28125 28.171875 C 5.425781 29.316406 5.699219 30.355469 6.207031 31.640625 C 6.523438 32.441406 6.753906 32.964844 7.585938 34.734375 C 7.996094 35.601562 8.441406 36.585938 8.582031 36.910156 C 9.328125 38.699219 9.816406 40.429688 10.601562 44.019531 C 10.777344 44.84375 10.933594 45.527344 10.945312 45.539062 C 10.953125 45.550781 11.113281 45.484375 11.296875 45.386719 C 12.085938 44.972656 12.785156 43.96875 13.226562 42.628906 C 13.484375 41.851562 13.578125 41.300781 13.613281 40.46875 C 13.644531 39.632812 13.597656 38.976562 13.375 37.382812 C 12.941406 34.253906 12.769531 31.863281 12.769531 28.992188 C 12.769531 27.347656 12.875 24.636719 12.929688 24.820312 C 12.945312 24.863281 13.105469 27.671875 13.445312 33.648438 C 13.613281 36.566406 13.789062 37.6875 14.289062 38.867188 C 14.445312 39.25 14.832031 39.917969 14.886719 39.917969 C 14.902344 39.917969 15.089844 39.570312 15.296875 39.152344 C 16.25 37.234375 17.132812 35.832031 18.125 34.671875 C 18.359375 34.394531 18.644531 34.027344 18.761719 33.851562 C 19.058594 33.402344 19.675781 32.140625 19.757812 31.824219 C 19.925781 31.164062 19.765625 29.8125 19.375 28.570312 C 19.234375 28.121094 19.207031 27.945312 18.308594 22.300781 L 17.878906 19.59375 L 17.835938 18.359375 C 17.78125 16.910156 17.703125 16.320312 17.5 15.707031 C 17.285156 15.0625 17.121094 14.820312 16.378906 14.027344 C 15.558594 13.15625 15.417969 12.910156 15.417969 12.328125 C 15.414062 12.03125 15.433594 11.925781 15.519531 11.753906 L 15.628906 11.550781 L 15.503906 11.445312 C 15.355469 11.3125 15.101562 11.308594 14.769531 11.429688 Z M 14.769531 11.429688 "/>
<path style=" stroke:none;fill-rule:nonzero;fill:rgb(0%,0%,0%);fill-opacity:1;" d="M 41.75 16.160156 C 41.324219 16.542969 40.570312 16.839844 39.644531 16.980469 C 39.378906 17.023438 38.007812 17.203125 36.589844 17.378906 C 32.484375 17.894531 30.660156 18.125 30.65625 18.128906 C 30.652344 18.132812 30.125 18.832031 29.476562 19.683594 C 28.835938 20.53125 28.292969 21.253906 28.269531 21.285156 C 28.25 21.316406 28.355469 21.289062 28.5 21.222656 C 30.351562 20.375 32.011719 19.949219 33.964844 19.820312 C 35.855469 19.699219 36.207031 19.671875 36.632812 19.609375 C 37.558594 19.472656 38.285156 19.210938 38.878906 18.804688 C 39.253906 18.546875 39.101562 18.734375 38.648438 19.078125 C 37.617188 19.867188 36.480469 20.210938 33.964844 20.488281 C 31.726562 20.734375 30.902344 20.925781 29.886719 21.449219 C 28.609375 22.101562 27.5 23.277344 26.355469 25.191406 C 25.925781 25.90625 25.417969 26.828125 25.441406 26.84375 C 25.449219 26.855469 25.667969 26.914062 25.925781 26.984375 C 27.226562 27.316406 28.828125 27.230469 30.597656 26.734375 C 33.101562 26.039062 35.597656 24.585938 37.339844 22.816406 C 38.144531 21.996094 38.609375 21.367188 39.0625 20.488281 L 39.328125 19.980469 L 39.328125 20.515625 C 39.328125 21.09375 39.285156 21.277344 39.109375 21.519531 L 38.996094 21.671875 L 39.148438 21.640625 C 39.371094 21.589844 39.714844 21.429688 40.144531 21.171875 C 40.734375 20.816406 41 20.726562 41.453125 20.726562 C 41.664062 20.734375 41.894531 20.75 41.96875 20.773438 C 42.09375 20.816406 42.082031 20.824219 41.71875 20.945312 C 40.226562 21.460938 38.425781 22.605469 36.859375 24.035156 C 35.003906 25.734375 32.992188 26.871094 30.640625 27.558594 C 29.503906 27.886719 28.523438 28.042969 26.933594 28.140625 C 25.691406 28.21875 25.132812 28.316406 24.679688 28.527344 C 23.828125 28.933594 23.253906 29.574219 21.960938 31.554688 C 21.066406 32.925781 20.261719 34.332031 19.574219 35.726562 C 19.246094 36.394531 18.648438 37.691406 18.648438 37.738281 C 18.648438 37.78125 20.546875 37.46875 21.339844 37.289062 C 24.363281 36.601562 27.285156 35.425781 30.253906 33.703125 C 33.644531 31.734375 36.773438 29.289062 40.636719 25.582031 C 41.476562 24.773438 41.476562 24.792969 40.625 25.871094 C 39.164062 27.722656 36.988281 29.96875 35.242188 31.429688 C 35.050781 31.59375 34.902344 31.734375 34.910156 31.746094 C 34.964844 31.804688 35.726562 31.902344 36.316406 31.925781 C 38.0625 32.003906 39.800781 31.53125 41.292969 30.585938 L 41.703125 30.328125 L 41.339844 30.6875 C 40.722656 31.296875 40.027344 31.699219 38.949219 32.058594 C 38.234375 32.296875 37.589844 32.441406 36.113281 32.683594 C 35.503906 32.785156 34.851562 32.898438 34.667969 32.9375 C 33.734375 33.128906 32.742188 33.449219 32.15625 33.753906 C 31.773438 33.949219 31.101562 34.410156 31.140625 34.449219 C 31.183594 34.484375 32.273438 34.714844 32.925781 34.824219 C 33.957031 34.996094 34.859375 35.082031 35.933594 35.117188 L 36.90625 35.152344 L 36.589844 35.304688 C 35.855469 35.65625 34.761719 35.816406 33.632812 35.726562 C 33.269531 35.699219 32.566406 35.625 32.074219 35.5625 C 30.371094 35.34375 29.496094 35.332031 28.539062 35.515625 C 27.640625 35.6875 26.8125 35.996094 25.070312 36.796875 C 22.652344 37.90625 22.296875 38.03125 20.347656 38.441406 C 18.878906 38.75 18.257812 39.054688 17.5625 39.8125 C 17.171875 40.238281 16.894531 40.667969 16.296875 41.761719 C 15.679688 42.890625 15.304688 43.453125 14.890625 43.890625 C 14.703125 44.089844 14.558594 44.25 14.574219 44.25 C 14.585938 44.25 15.058594 44.296875 15.617188 44.347656 C 17.109375 44.484375 19.308594 44.511719 20.277344 44.410156 C 21.722656 44.265625 22.785156 43.996094 23.941406 43.488281 C 24.597656 43.203125 25.339844 42.746094 25.828125 42.328125 C 25.957031 42.222656 26.074219 42.128906 26.085938 42.128906 C 26.105469 42.128906 25.929688 42.410156 25.703125 42.757812 C 25.476562 43.101562 25.300781 43.386719 25.308594 43.398438 C 25.359375 43.4375 27.648438 42.730469 28.898438 42.277344 C 30.820312 41.582031 32.976562 40.578125 34.554688 39.636719 C 36.445312 38.511719 38.273438 37.046875 39.417969 35.75 C 39.675781 35.457031 39.894531 35.226562 39.90625 35.238281 C 39.914062 35.246094 39.910156 35.371094 39.890625 35.515625 C 39.828125 36.050781 39.273438 36.925781 38.480469 37.738281 C 38.25 37.976562 38.058594 38.183594 38.058594 38.199219 C 38.058594 38.210938 38.226562 38.210938 38.433594 38.203125 C 39.304688 38.148438 40.535156 37.53125 41.394531 36.71875 C 41.933594 36.210938 42.199219 35.707031 42.421875 34.785156 C 42.621094 33.984375 42.695312 33.042969 42.910156 28.855469 C 42.988281 27.378906 42.988281 23.25 42.910156 22.21875 C 42.746094 19.976562 42.503906 18.261719 42.09375 16.496094 L 41.972656 15.957031 Z M 41.75 16.160156 "/>
<path style=" stroke:none;fill-rule:nonzero;fill:rgb(0%,0%,0%);fill-opacity:1;" d="M 26.882812 22.328125 C 25.675781 23.40625 24.605469 24.773438 23.292969 26.914062 C 23.097656 27.226562 22.265625 28.679688 21.445312 30.140625 C 17.332031 37.441406 15.460938 40.589844 13.046875 44.226562 C 10.199219 48.53125 7.328125 52.1875 4.453125 55.179688 L 3.625 56.039062 L 3.605469 56.769531 C 3.578125 57.667969 3.511719 58.285156 3.398438 58.648438 C 3.351562 58.800781 3.320312 58.929688 3.324219 58.933594 C 3.339844 58.949219 4.441406 57.730469 4.984375 57.109375 C 7.488281 54.238281 10.03125 50.78125 12.40625 47.039062 C 14.488281 43.757812 16.347656 40.539062 19.601562 34.59375 C 23.335938 27.761719 24.640625 25.601562 26.722656 22.792969 C 27.269531 22.058594 27.355469 21.941406 27.328125 21.941406 C 27.320312 21.941406 27.121094 22.117188 26.882812 22.328125 Z M 26.882812 22.328125 "/>
<path style=" stroke:none;fill-rule:nonzero;fill:rgb(0%,0%,0%);fill-opacity:1;" d="M 42.289062 36.558594 C 42.273438 36.585938 42.265625 36.613281 42.28125 36.625 C 42.289062 36.640625 42.3125 36.617188 42.324219 36.574219 C 42.359375 36.496094 42.332031 36.484375 42.289062 36.558594 Z M 42.289062 36.558594 "/>
<path style=" stroke:none;fill-rule:nonzero;fill:rgb(0%,0%,0%);fill-opacity:1;" d="M 41.925781 37.160156 C 41.570312 37.664062 40.863281 38.382812 40.519531 38.59375 C 40.171875 38.8125 39.734375 38.976562 39.363281 39.042969 C 39.203125 39.070312 38.636719 39.109375 38.105469 39.132812 C 37.398438 39.164062 37.027344 39.203125 36.75 39.273438 C 36.085938 39.4375 35.570312 39.75 35.339844 40.128906 C 35.222656 40.324219 35.214844 40.3125 35.683594 40.511719 C 36.398438 40.816406 37.207031 40.957031 38.035156 40.917969 C 38.851562 40.878906 39.542969 40.699219 40.246094 40.355469 L 40.570312 40.1875 L 40.339844 40.410156 C 39.5 41.21875 38.027344 41.566406 36.03125 41.4375 C 35.59375 41.410156 34.988281 41.367188 34.6875 41.347656 C 32.644531 41.179688 31.238281 41.4375 30.253906 42.152344 C 29.757812 42.511719 29.464844 42.964844 29.464844 43.363281 C 29.464844 43.871094 29.867188 44.171875 31.046875 44.546875 C 32.15625 44.894531 32.933594 45.023438 34.101562 45.066406 C 35.035156 45.097656 35.773438 45.039062 36.605469 44.867188 C 36.914062 44.804688 37.175781 44.761719 37.1875 44.777344 C 37.214844 44.804688 36.714844 45.085938 36.292969 45.28125 C 34.65625 46.042969 32.601562 46.128906 30.957031 45.507812 C 30.722656 45.417969 30.085938 45.121094 29.554688 44.84375 C 28.136719 44.117188 27.644531 43.984375 26.59375 44.035156 C 26.292969 44.046875 24.46875 44.25 22.539062 44.480469 C 20.613281 44.710938 18.503906 44.960938 17.859375 45.035156 C 15.742188 45.28125 15.121094 45.425781 14.332031 45.820312 C 13.675781 46.152344 13.429688 46.433594 12.960938 47.359375 C 12.800781 47.6875 12.613281 48.039062 12.554688 48.132812 C 12.5 48.226562 12.453125 48.320312 12.453125 48.34375 C 12.453125 48.367188 12.78125 48.429688 13.183594 48.484375 C 13.589844 48.542969 14.675781 48.710938 15.59375 48.863281 C 19.519531 49.507812 20.640625 49.625 22.71875 49.582031 C 23.703125 49.566406 24.152344 49.535156 24.847656 49.441406 C 26.933594 49.15625 28.125 48.855469 28.914062 48.417969 C 29.304688 48.199219 29.824219 47.792969 30.054688 47.527344 L 30.242188 47.316406 L 30.09375 47.589844 C 30.011719 47.742188 29.867188 48.011719 29.769531 48.183594 C 29.675781 48.355469 29.597656 48.503906 29.597656 48.511719 C 29.597656 48.523438 29.742188 48.5625 29.921875 48.605469 C 31.8125 49.042969 33.90625 48.785156 35.628906 47.910156 C 35.796875 47.820312 35.933594 47.761719 35.933594 47.777344 C 35.933594 47.839844 34.859375 48.503906 34.257812 48.808594 C 32.839844 49.527344 31.53125 49.890625 29.910156 50.015625 C 29.527344 50.042969 29.046875 50.054688 28.84375 50.039062 C 28.609375 50.015625 28.46875 50.027344 28.46875 50.054688 C 28.46875 50.113281 29.074219 50.667969 29.441406 50.9375 C 29.789062 51.195312 30.496094 51.570312 30.910156 51.71875 C 31.074219 51.777344 31.222656 51.839844 31.246094 51.859375 C 31.316406 51.925781 30.753906 51.960938 30.410156 51.910156 C 29.90625 51.835938 29.445312 51.640625 28.597656 51.136719 C 27.726562 50.609375 27.425781 50.464844 26.921875 50.316406 C 26.15625 50.089844 25.285156 50.0625 24.167969 50.222656 C 23.695312 50.292969 22.398438 50.554688 22.363281 50.585938 C 22.324219 50.628906 22.839844 51.269531 23.175781 51.597656 C 24.199219 52.59375 25.695312 53.1875 27.042969 53.136719 C 27.542969 53.117188 27.507812 53.160156 26.925781 53.265625 C 25.988281 53.433594 24.894531 53.265625 24.011719 52.828125 C 23.421875 52.53125 23.207031 52.363281 22.382812 51.546875 C 21.363281 50.53125 21.046875 50.371094 20.074219 50.367188 C 19.730469 50.363281 19.230469 50.394531 18.875 50.445312 C 17.734375 50.601562 16.964844 50.519531 15.820312 50.105469 C 13.992188 49.441406 13.632812 49.347656 12.835938 49.347656 C 12.242188 49.347656 11.886719 49.421875 11.484375 49.628906 C 11.21875 49.765625 10.957031 49.957031 10.957031 50.015625 C 10.957031 50.066406 11.855469 51.398438 12.285156 51.992188 C 13.105469 53.132812 14.027344 54.160156 14.808594 54.828125 C 16.113281 55.9375 17.585938 56.601562 19.390625 56.890625 C 19.921875 56.972656 20.234375 56.992188 21.207031 56.992188 C 22.441406 56.996094 22.898438 56.957031 24.078125 56.761719 C 28.277344 56.054688 32.199219 54.101562 35.367188 51.132812 C 38.917969 47.808594 41.359375 43.078125 42.085938 38.105469 C 42.179688 37.457031 42.25 36.78125 42.21875 36.78125 C 42.203125 36.78125 42.074219 36.953125 41.925781 37.160156 Z M 41.925781 37.160156 "/>
</g>
</svg>
